<svg width="183" height="258" viewBox="0 0 183 258" fill="none" xmlns="http://www.w3.org/2000/svg">
<path d="M32.4591 189.76V184.93H27.9991V189.76H25.7891V178.16H27.9991V183H32.4191V178.14H34.6691V189.74L32.4591 189.76ZM42.9791 189.76H41.1891L41.0291 189.19C40.2487 189.675 39.3479 189.931 38.4291 189.93C36.8391 189.93 36.1591 188.88 36.1591 187.44C36.1591 185.74 36.9291 185.09 38.6991 185.09H40.7991V184.21C40.7991 183.28 40.5291 182.96 39.1291 182.96C38.3197 182.968 37.5129 183.052 36.7191 183.21L36.4491 181.62C37.4268 181.354 38.4357 181.219 39.4491 181.22C42.1791 181.22 42.9891 182.15 42.9891 184.22L42.9791 189.76ZM40.7991 186.6H39.1891C38.4691 186.6 38.2691 186.79 38.2691 187.42C38.2691 188.05 38.4691 188.26 39.1491 188.26C39.726 188.254 40.2926 188.106 40.7991 187.83V186.6ZM47.5491 189.93C46.5316 189.911 45.5217 189.749 44.5491 189.45L44.8591 187.85C45.7028 188.084 46.5736 188.205 47.4491 188.21C48.4491 188.21 48.5591 188 48.5591 187.37C48.5591 186.74 48.4491 186.6 47.0391 186.27C44.9091 185.77 44.6591 185.27 44.6591 183.64C44.6591 182.01 45.4291 181.22 47.9191 181.22C48.7971 181.22 49.6725 181.317 50.5291 181.51L50.3091 183.18C49.5196 183.04 48.7206 182.96 47.9191 182.94C46.9691 182.94 46.8091 183.14 46.8091 183.66C46.8091 184.33 46.8591 184.38 48.0391 184.66C50.4791 185.28 50.7091 185.59 50.7091 187.31C50.7091 189.03 50.1791 189.93 47.5491 189.93ZM57.5491 189.76V183.92C57.5491 183.47 57.3491 183.25 56.8491 183.25C56.055 183.338 55.2848 183.576 54.5791 183.95V189.76H52.3891V178L54.5691 178.32V182C55.5648 181.512 56.6511 181.236 57.7591 181.19C59.1991 181.19 59.7591 182.19 59.7591 183.66V189.73L57.5491 189.76ZM61.5491 180.21V178.16H63.7291V180.21H61.5491ZM61.5491 189.76V181.39H63.7291V189.76H61.5491ZM65.4691 181.46C65.4691 179.37 66.7391 178.15 69.7091 178.15C70.7998 178.147 71.8872 178.271 72.9491 178.52L72.6991 180.4C71.7359 180.218 70.7591 180.118 69.7791 180.1C68.2291 180.1 67.7291 180.62 67.7291 181.84V186.24C67.7291 187.46 68.2291 187.97 69.7791 187.97C70.7585 187.951 71.735 187.854 72.6991 187.68L72.9491 189.55C71.8876 189.802 70.8002 189.93 69.7091 189.93C66.7091 189.93 65.4691 188.71 65.4691 186.61V181.46ZM77.7691 189.93C74.7691 189.93 73.9791 188.35 73.9791 186.63V184.52C73.9791 182.8 74.7791 181.22 77.7691 181.22C80.7591 181.22 81.5591 182.8 81.5591 184.52V186.63C81.5691 188.35 80.7691 189.93 77.7791 189.93H77.7691ZM77.7691 183.01C76.6091 183.01 76.1591 183.5 76.1591 184.45V186.7C76.1591 187.64 76.6091 188.14 77.7691 188.14C78.9291 188.14 79.3791 187.64 79.3791 186.7V184.45C79.3891 183.5 78.9391 183 77.7791 183L77.7691 183.01ZM87.7091 183.14C86.9099 183.489 86.1378 183.897 85.3991 184.36V189.76H83.2291V181.39H85.0691L85.2091 182.32C85.9245 181.861 86.6936 181.492 87.4991 181.22L87.7091 183.14ZM96.4391 187C96.4391 188.86 95.5791 190 93.5591 190C92.7798 189.994 92.003 189.914 91.2391 189.76V193.18L89.0591 193.5V181.5H90.7891L91.0091 182.21C91.8085 181.631 92.772 181.323 93.7591 181.33C95.5091 181.33 96.4391 182.33 96.4391 184.23V187ZM91.2391 187.95C91.8737 188.086 92.5201 188.159 93.1691 188.17C93.9591 188.17 94.2591 187.81 94.2591 187.06V184.06C94.2591 183.37 93.9891 183 93.1891 183C92.4552 183.009 91.7476 183.274 91.1891 183.75L91.2391 187.95Z" fill="black"/>
<path d="M25.7891 198.2H39.2091C47.1591 198.2 50.0991 201.45 50.0991 207.49V212.19C50.0991 218.19 46.8991 221.43 38.8991 221.43H32.2891V232.58H25.7891V198.2ZM38.8491 203.93H32.2891V215.7H38.8491C42.5091 215.7 43.5991 214.36 43.5991 211.52V208C43.5991 205.17 42.4091 203.93 38.8491 203.93Z" fill="black"/>
<path d="M72.0895 232.58H66.9295L66.4695 230.88C64.2435 232.32 61.6507 233.091 58.9995 233.1C54.4095 233.1 52.4395 229.95 52.4395 225.61C52.4395 220.5 54.6595 218.54 59.7695 218.54H65.7695V215.91C65.7695 213.12 64.9995 212.14 60.9695 212.14C58.6164 212.164 56.2715 212.422 53.9695 212.91L53.1995 208.11C56.0074 207.333 58.9061 206.933 61.8195 206.92C69.7195 206.92 72.0395 209.71 72.0395 216.01L72.0895 232.58ZM65.7895 223.08H61.1495C59.0795 223.08 58.5095 223.65 58.5095 225.56C58.5095 227.31 59.0795 228.09 61.0395 228.09C62.7062 228.067 64.3401 227.623 65.7895 226.8V223.08Z" fill="black"/>
<path d="M75.8594 223.44V216.58C75.8594 209.81 78.7994 206.92 86.6994 206.92C88.7802 206.932 90.8484 207.245 92.8394 207.85L92.0694 213C90.3638 212.58 88.6158 212.355 86.8594 212.33C83.2394 212.33 82.1594 213.42 82.1594 216.52V223.52C82.1594 226.62 83.2394 227.71 86.8594 227.71C88.6169 227.701 90.3667 227.476 92.0694 227.04L92.8394 232.2C90.8515 232.818 88.7813 233.132 86.6994 233.13C78.7994 233.1 75.8594 230.21 75.8594 223.44Z" fill="black"/>
<path d="M96.8184 232.58V197.17L103.118 196.29V232.58H96.8184ZM118.188 207.44L110.808 219.88L118.498 232.58H111.578L103.998 219.88L111.178 207.44H118.188Z" fill="black"/>
<path d="M131.299 227.93C133.907 227.917 136.498 227.52 138.989 226.75L139.989 231.5C137.026 232.567 133.899 233.108 130.749 233.1C122.849 233.1 120.119 229.43 120.119 223.39V216.73C120.119 211.41 122.489 206.92 130.549 206.92C138.609 206.92 140.409 211.62 140.409 217.04V222.41H126.409V223.7C126.399 226.75 127.479 227.93 131.299 227.93ZM126.399 217.35H134.399V216.11C134.399 213.74 133.669 212.11 130.579 212.11C127.489 212.11 126.399 213.76 126.399 216.11V217.35Z" fill="black"/>
<path d="M157.21 212.71C154.9 213.758 152.673 214.982 150.55 216.37V232.58H144.26V207.44H149.57L149.99 210.23C152.034 208.84 154.253 207.727 156.59 206.92L157.21 212.71Z" fill="black"/>
<path fill-rule="evenodd" clip-rule="evenodd" d="M47.5 31.5195L94.15 58.4695V157.86L47.5 130.91V31.5195Z" fill="#02A8EF"/>
<path d="M117.249 43.1299L66.5391 13.9199V34.2099L100.999 54.1199V115L117.229 124.32C127.229 130.12 135.479 126.64 135.479 116.6V71.9299C135.499 61.8899 127.289 48.9299 117.249 43.1299Z" fill="#02A8EF"/>
</svg>
